<svg width="200" height="48" viewBox="0 0 200 48" fill="none" xmlns="http://www.w3.org/2000/svg">
<g clip-path="url(#clip0_340_161)">
<path d="M12.2159 38.4545C10.1136 38.4545 8.30019 37.9905 6.77557 37.0625C5.26042 36.125 4.09091 34.8182 3.26705 33.142C2.45265 31.4564 2.04545 29.4962 2.04545 27.2614C2.04545 25.0265 2.45265 23.0568 3.26705 21.3523C4.09091 19.6383 5.23674 18.303 6.70455 17.3466C8.18182 16.3807 9.9053 15.8977 11.875 15.8977C13.0114 15.8977 14.1335 16.0871 15.2415 16.4659C16.3494 16.8447 17.358 17.4602 18.267 18.3125C19.1761 19.1553 19.9006 20.2727 20.4403 21.6648C20.9801 23.0568 21.25 24.7708 21.25 26.8068V28.2273H4.43182V25.3295H17.8409C17.8409 24.0985 17.5947 23 17.1023 22.0341C16.6193 21.0682 15.928 20.3059 15.0284 19.7472C14.1383 19.1884 13.0871 18.9091 11.875 18.9091C10.5398 18.9091 9.38447 19.2405 8.40909 19.9034C7.44318 20.5568 6.69981 21.4091 6.17898 22.4602C5.65814 23.5114 5.39773 24.6383 5.39773 25.8409V27.7727C5.39773 29.4205 5.68182 30.8172 6.25 31.9631C6.82765 33.0994 7.62784 33.9659 8.65057 34.5625C9.6733 35.1496 10.8617 35.4432 12.2159 35.4432C13.0966 35.4432 13.892 35.3201 14.6023 35.0739C15.322 34.8182 15.9422 34.4394 16.4631 33.9375C16.9839 33.4261 17.3864 32.7917 17.6705 32.0341L20.9091 32.9432C20.5682 34.0417 19.9953 35.0076 19.1903 35.8409C18.3854 36.6648 17.3911 37.3087 16.2074 37.7727C15.0237 38.2273 13.6932 38.4545 12.2159 38.4545ZM29.7017 24.875V38H26.3494V16.1818H29.5881V19.5909H29.8722C30.3835 18.483 31.16 17.5928 32.2017 16.9205C33.2434 16.2386 34.5881 15.8977 36.2358 15.8977C37.7131 15.8977 39.0057 16.2008 40.1136 16.8068C41.2216 17.4034 42.0833 18.3125 42.6989 19.5341C43.3144 20.7462 43.6222 22.2803 43.6222 24.1364V38H40.2699V24.3636C40.2699 22.6496 39.8248 21.3144 38.9347 20.358C38.0445 19.392 36.8229 18.9091 35.2699 18.9091C34.1998 18.9091 33.2434 19.1411 32.4006 19.6051C31.5672 20.0691 30.9091 20.7462 30.4261 21.6364C29.9432 22.5265 29.7017 23.6061 29.7017 24.875ZM58.8956 38.4545C56.7933 38.4545 54.9799 37.9905 53.4553 37.0625C51.9401 36.125 50.7706 34.8182 49.9467 33.142C49.1323 31.4564 48.7251 29.4962 48.7251 27.2614C48.7251 25.0265 49.1323 23.0568 49.9467 21.3523C50.7706 19.6383 51.9164 18.303 53.3842 17.3466C54.8615 16.3807 56.585 15.8977 58.5547 15.8977C59.6911 15.8977 60.8132 16.0871 61.9212 16.4659C63.0291 16.8447 64.0376 17.4602 64.9467 18.3125C65.8558 19.1553 66.5803 20.2727 67.12 21.6648C67.6598 23.0568 67.9297 24.7708 67.9297 26.8068V28.2273H51.1115V25.3295H64.5206C64.5206 24.0985 64.2744 23 63.782 22.0341C63.299 21.0682 62.6077 20.3059 61.7081 19.7472C60.8179 19.1884 59.7668 18.9091 58.5547 18.9091C57.2195 18.9091 56.0642 19.2405 55.0888 19.9034C54.1229 20.5568 53.3795 21.4091 52.8587 22.4602C52.3378 23.5114 52.0774 24.6383 52.0774 25.8409V27.7727C52.0774 29.4205 52.3615 30.8172 52.9297 31.9631C53.5073 33.0994 54.3075 33.9659 55.3303 34.5625C56.353 35.1496 57.5414 35.4432 58.8956 35.4432C59.7763 35.4432 60.5717 35.3201 61.282 35.0739C62.0017 34.8182 62.6219 34.4394 63.1428 33.9375C63.6636 33.4261 64.0661 32.7917 64.3501 32.0341L67.5888 32.9432C67.2479 34.0417 66.675 35.0076 65.87 35.8409C65.0651 36.6648 64.0708 37.3087 62.8871 37.7727C61.7034 38.2273 60.3729 38.4545 58.8956 38.4545ZM73.0291 38V16.1818H76.2678V19.4773H76.495C76.8928 18.3977 77.6125 17.5218 78.6541 16.8494C79.6958 16.1771 80.87 15.8409 82.1768 15.8409C82.4231 15.8409 82.7308 15.8456 83.1001 15.8551C83.4695 15.8646 83.7488 15.8788 83.9382 15.8977V19.3068C83.8246 19.2784 83.5642 19.2358 83.157 19.179C82.7592 19.1127 82.3378 19.0795 81.8928 19.0795C80.8322 19.0795 79.8852 19.3021 79.0518 19.7472C78.228 20.1828 77.5746 20.7888 77.0916 21.5653C76.6181 22.3324 76.3814 23.2083 76.3814 24.1932V38H73.0291ZM96.0547 46.6364C94.4354 46.6364 93.0433 46.428 91.8786 46.0114C90.7138 45.6042 89.7431 45.0644 88.9666 44.392C88.1996 43.7292 87.5888 43.0189 87.1342 42.2614L89.8047 40.3864C90.1077 40.7841 90.4912 41.2386 90.9553 41.75C91.4193 42.2708 92.0537 42.7206 92.8587 43.0994C93.6731 43.4877 94.7384 43.6818 96.0547 43.6818C97.8161 43.6818 99.2697 43.2557 100.415 42.4034C101.561 41.5511 102.134 40.2159 102.134 38.3977V33.9659H101.85C101.604 34.3636 101.254 34.8561 100.799 35.4432C100.354 36.0208 99.71 36.5369 98.8672 36.9915C98.0339 37.4366 96.907 37.6591 95.4865 37.6591C93.7251 37.6591 92.1437 37.2424 90.7422 36.4091C89.3501 35.5758 88.2469 34.3636 87.4325 32.7727C86.6276 31.1818 86.2251 29.25 86.2251 26.9773C86.2251 24.7424 86.6181 22.7964 87.4041 21.1392C88.1901 19.4725 89.2839 18.1847 90.6854 17.2756C92.0869 16.357 93.7062 15.8977 95.5433 15.8977C96.9638 15.8977 98.0907 16.1345 98.924 16.608C99.7668 17.072 100.411 17.6023 100.856 18.1989C101.31 18.786 101.661 19.2689 101.907 19.6477H102.248V16.1818H105.487V38.625C105.487 40.5 105.06 42.0246 104.208 43.1989C103.365 44.3826 102.229 45.2491 100.799 45.7983C99.3786 46.357 97.7971 46.6364 96.0547 46.6364ZM95.9411 34.6477C97.2857 34.6477 98.4221 34.34 99.3501 33.7244C100.278 33.1089 100.984 32.2235 101.467 31.0682C101.95 29.9129 102.191 28.5303 102.191 26.9205C102.191 25.3485 101.954 23.9612 101.481 22.7585C101.007 21.5559 100.307 20.6136 99.3786 19.9318C98.4505 19.25 97.3047 18.9091 95.9411 18.9091C94.5206 18.9091 93.3369 19.2689 92.3899 19.9886C91.4524 20.7083 90.7469 21.6742 90.2734 22.8864C89.8094 24.0985 89.5774 25.4432 89.5774 26.9205C89.5774 28.4356 89.8142 29.7756 90.2876 30.9403C90.7706 32.0956 91.4808 33.0047 92.4183 33.6676C93.3653 34.321 94.5395 34.6477 95.9411 34.6477ZM120.771 38.4545C118.668 38.4545 116.855 37.9905 115.33 37.0625C113.815 36.125 112.646 34.8182 111.822 33.142C111.007 31.4564 110.6 29.4962 110.6 27.2614C110.6 25.0265 111.007 23.0568 111.822 21.3523C112.646 19.6383 113.791 18.303 115.259 17.3466C116.737 16.3807 118.46 15.8977 120.43 15.8977C121.566 15.8977 122.688 16.0871 123.796 16.4659C124.904 16.8447 125.913 17.4602 126.822 18.3125C127.731 19.1553 128.455 20.2727 128.995 21.6648C129.535 23.0568 129.805 24.7708 129.805 26.8068V28.2273H112.987V25.3295H126.396C126.396 24.0985 126.149 23 125.657 22.0341C125.174 21.0682 124.483 20.3059 123.583 19.7472C122.693 19.1884 121.642 18.9091 120.43 18.9091C119.094 18.9091 117.939 19.2405 116.964 19.9034C115.998 20.5568 115.254 21.4091 114.734 22.4602C114.213 23.5114 113.952 24.6383 113.952 25.8409V27.7727C113.952 29.4205 114.237 30.8172 114.805 31.9631C115.382 33.0994 116.183 33.9659 117.205 34.5625C118.228 35.1496 119.416 35.4432 120.771 35.4432C121.651 35.4432 122.447 35.3201 123.157 35.0739C123.877 34.8182 124.497 34.4394 125.018 33.9375C125.539 33.4261 125.941 32.7917 126.225 32.0341L129.464 32.9432C129.123 34.0417 128.55 35.0076 127.745 35.8409C126.94 36.6648 125.946 37.3087 124.762 37.7727C123.578 38.2273 122.248 38.4545 120.771 38.4545ZM144.393 16.1818V19.0227H133.086V16.1818H144.393ZM136.381 10.9545H139.734V31.75C139.734 32.697 139.871 33.4072 140.146 33.8807C140.43 34.3447 140.79 34.6572 141.225 34.8182C141.67 34.9697 142.139 35.0455 142.631 35.0455C143.001 35.0455 143.304 35.0265 143.54 34.9886C143.777 34.9413 143.967 34.9034 144.109 34.875L144.79 37.8864C144.563 37.9716 144.246 38.0568 143.839 38.142C143.432 38.2367 142.915 38.2841 142.29 38.2841C141.344 38.2841 140.415 38.0805 139.506 37.6733C138.607 37.2661 137.859 36.6458 137.262 35.8125C136.675 34.9792 136.381 33.928 136.381 32.6591V10.9545ZM149.435 38V16.1818H152.788V38H149.435ZM151.14 12.5455C150.487 12.5455 149.923 12.3229 149.45 11.8778C148.986 11.4328 148.754 10.8977 148.754 10.2727C148.754 9.64773 148.986 9.11269 149.45 8.66761C149.923 8.22254 150.487 8 151.14 8C151.793 8 152.352 8.22254 152.816 8.66761C153.29 9.11269 153.526 9.64773 153.526 10.2727C153.526 10.8977 153.29 11.4328 152.816 11.8778C152.352 12.3229 151.793 12.5455 151.14 12.5455ZM167.791 38.4545C165.746 38.4545 163.984 37.9716 162.507 37.0057C161.03 36.0398 159.893 34.7093 159.098 33.0142C158.303 31.3191 157.905 29.3826 157.905 27.2045C157.905 24.9886 158.312 23.0331 159.126 21.3381C159.95 19.6335 161.096 18.303 162.564 17.3466C164.041 16.3807 165.765 15.8977 167.734 15.8977C169.268 15.8977 170.651 16.1818 171.882 16.75C173.113 17.3182 174.122 18.1136 174.908 19.1364C175.694 20.1591 176.181 21.3523 176.371 22.7159H173.018C172.763 21.7216 172.195 20.8409 171.314 20.0739C170.443 19.2973 169.268 18.9091 167.791 18.9091C166.484 18.9091 165.339 19.25 164.354 19.9318C163.378 20.6042 162.616 21.5559 162.067 22.7869C161.527 24.0085 161.257 25.4432 161.257 27.0909C161.257 28.7765 161.522 30.2443 162.053 31.4943C162.592 32.7443 163.35 33.715 164.325 34.4062C165.31 35.0975 166.465 35.4432 167.791 35.4432C168.662 35.4432 169.453 35.2917 170.163 34.9886C170.874 34.6856 171.475 34.25 171.967 33.6818C172.46 33.1136 172.81 32.4318 173.018 31.6364H176.371C176.181 32.9242 175.713 34.0843 174.964 35.1165C174.226 36.1392 173.246 36.9536 172.024 37.5597C170.812 38.1562 169.401 38.4545 167.791 38.4545ZM196.726 21.0682L193.714 21.9205C193.525 21.4186 193.246 20.9309 192.876 20.4574C192.517 19.9744 192.024 19.5767 191.399 19.2642C190.774 18.9517 189.974 18.7955 188.999 18.7955C187.663 18.7955 186.551 19.1032 185.661 19.7188C184.78 20.3248 184.339 21.0966 184.339 22.0341C184.339 22.8674 184.643 23.5256 185.249 24.0085C185.855 24.4915 186.802 24.8939 188.089 25.2159L191.328 26.0114C193.279 26.4848 194.732 27.2093 195.689 28.1847C196.645 29.1506 197.124 30.3958 197.124 31.9205C197.124 33.1705 196.764 34.2879 196.044 35.2727C195.334 36.2576 194.339 37.0341 193.061 37.6023C191.783 38.1705 190.296 38.4545 188.601 38.4545C186.375 38.4545 184.534 37.9716 183.075 37.0057C181.617 36.0398 180.694 34.6288 180.305 32.7727L183.487 31.9773C183.79 33.1515 184.363 34.0322 185.206 34.6193C186.058 35.2064 187.171 35.5 188.544 35.5C190.107 35.5 191.347 35.1686 192.266 34.5057C193.194 33.8333 193.658 33.0284 193.658 32.0909C193.658 31.3333 193.393 30.6989 192.862 30.1875C192.332 29.6667 191.518 29.2784 190.419 29.0227L186.783 28.1705C184.785 27.697 183.317 26.9631 182.379 25.9688C181.451 24.965 180.987 23.7102 180.987 22.2045C180.987 20.9735 181.333 19.8845 182.024 18.9375C182.725 17.9905 183.677 17.2472 184.879 16.7074C186.091 16.1676 187.464 15.8977 188.999 15.8977C191.158 15.8977 192.853 16.3712 194.084 17.3182C195.324 18.2652 196.205 19.5152 196.726 21.0682Z" fill="white"/>
</g>
<defs>
<clipPath id="clip0_340_161">
<rect width="200" height="48" fill="white"/>
</clipPath>
</defs>
</svg>
