<svg width="196" height="39" viewBox="0 0 196 39" fill="none" xmlns="http://www.w3.org/2000/svg">
<path d="M10.2159 30.4545C8.11364 30.4545 6.30019 29.9905 4.77557 29.0625C3.26042 28.125 2.09091 26.8182 1.26705 25.142C0.452652 23.4564 0.0454547 21.4962 0.0454547 19.2614C0.0454547 17.0265 0.452652 15.0568 1.26705 13.3523C2.09091 11.6383 3.23674 10.303 4.70455 9.34659C6.18182 8.38068 7.9053 7.89773 9.875 7.89773C11.0114 7.89773 12.1335 8.08712 13.2415 8.46591C14.3494 8.8447 15.358 9.46023 16.267 10.3125C17.1761 11.1553 17.9006 12.2727 18.4403 13.6648C18.9801 15.0568 19.25 16.7708 19.25 18.8068V20.2273H2.43182V17.3295H15.8409C15.8409 16.0985 15.5947 15 15.1023 14.0341C14.6193 13.0682 13.928 12.3059 13.0284 11.7472C12.1383 11.1884 11.0871 10.9091 9.875 10.9091C8.53977 10.9091 7.38447 11.2405 6.40909 11.9034C5.44318 12.5568 4.69981 13.4091 4.17898 14.4602C3.65814 15.5114 3.39773 16.6383 3.39773 17.8409V19.7727C3.39773 21.4205 3.68182 22.8172 4.25 23.9631C4.82765 25.0994 5.62784 25.9659 6.65057 26.5625C7.6733 27.1496 8.86174 27.4432 10.2159 27.4432C11.0966 27.4432 11.892 27.3201 12.6023 27.0739C13.322 26.8182 13.9422 26.4394 14.4631 25.9375C14.9839 25.4261 15.3864 24.7917 15.6705 24.0341L18.9091 24.9432C18.5682 26.0417 17.9953 27.0076 17.1903 27.8409C16.3854 28.6648 15.3911 29.3087 14.2074 29.7727C13.0237 30.2273 11.6932 30.4545 10.2159 30.4545ZM27.7017 16.875V30H24.3494V8.18182H27.5881V11.5909H27.8722C28.3835 10.483 29.16 9.5928 30.2017 8.92045C31.2434 8.23864 32.5881 7.89773 34.2358 7.89773C35.7131 7.89773 37.0057 8.20076 38.1136 8.80682C39.2216 9.40341 40.0833 10.3125 40.6989 11.5341C41.3144 12.7462 41.6222 14.2803 41.6222 16.1364V30H38.2699V16.3636C38.2699 14.6496 37.8248 13.3144 36.9347 12.358C36.0445 11.392 34.8229 10.9091 33.2699 10.9091C32.1998 10.9091 31.2434 11.1411 30.4006 11.6051C29.5672 12.0691 28.9091 12.7462 28.4261 13.6364C27.9432 14.5265 27.7017 15.6061 27.7017 16.875ZM56.8956 30.4545C54.7933 30.4545 52.9799 29.9905 51.4553 29.0625C49.9401 28.125 48.7706 26.8182 47.9467 25.142C47.1323 23.4564 46.7251 21.4962 46.7251 19.2614C46.7251 17.0265 47.1323 15.0568 47.9467 13.3523C48.7706 11.6383 49.9164 10.303 51.3842 9.34659C52.8615 8.38068 54.585 7.89773 56.5547 7.89773C57.6911 7.89773 58.8132 8.08712 59.9212 8.46591C61.0291 8.8447 62.0376 9.46023 62.9467 10.3125C63.8558 11.1553 64.5803 12.2727 65.12 13.6648C65.6598 15.0568 65.9297 16.7708 65.9297 18.8068V20.2273H49.1115V17.3295H62.5206C62.5206 16.0985 62.2744 15 61.782 14.0341C61.299 13.0682 60.6077 12.3059 59.7081 11.7472C58.8179 11.1884 57.7668 10.9091 56.5547 10.9091C55.2195 10.9091 54.0642 11.2405 53.0888 11.9034C52.1229 12.5568 51.3795 13.4091 50.8587 14.4602C50.3378 15.5114 50.0774 16.6383 50.0774 17.8409V19.7727C50.0774 21.4205 50.3615 22.8172 50.9297 23.9631C51.5073 25.0994 52.3075 25.9659 53.3303 26.5625C54.353 27.1496 55.5414 27.4432 56.8956 27.4432C57.7763 27.4432 58.5717 27.3201 59.282 27.0739C60.0017 26.8182 60.6219 26.4394 61.1428 25.9375C61.6636 25.4261 62.0661 24.7917 62.3501 24.0341L65.5888 24.9432C65.2479 26.0417 64.675 27.0076 63.87 27.8409C63.0651 28.6648 62.0708 29.3087 60.8871 29.7727C59.7034 30.2273 58.3729 30.4545 56.8956 30.4545ZM71.0291 30V8.18182H74.2678V11.4773H74.495C74.8928 10.3977 75.6125 9.52178 76.6541 8.84943C77.6958 8.17708 78.87 7.84091 80.1768 7.84091C80.4231 7.84091 80.7308 7.84564 81.1001 7.85511C81.4695 7.86458 81.7488 7.87879 81.9382 7.89773V11.3068C81.8246 11.2784 81.5642 11.2358 81.157 11.179C80.7592 11.1127 80.3378 11.0795 79.8928 11.0795C78.8322 11.0795 77.8852 11.3021 77.0518 11.7472C76.228 12.1828 75.5746 12.7888 75.0916 13.5653C74.6181 14.3324 74.3814 15.2083 74.3814 16.1932V30H71.0291ZM94.0547 38.6364C92.4354 38.6364 91.0433 38.428 89.8786 38.0114C88.7138 37.6042 87.7431 37.0644 86.9666 36.392C86.1996 35.7292 85.5888 35.0189 85.1342 34.2614L87.8047 32.3864C88.1077 32.7841 88.4912 33.2386 88.9553 33.75C89.4193 34.2708 90.0537 34.7206 90.8587 35.0994C91.6731 35.4877 92.7384 35.6818 94.0547 35.6818C95.8161 35.6818 97.2697 35.2557 98.4155 34.4034C99.5613 33.5511 100.134 32.2159 100.134 30.3977V25.9659H99.8501C99.6039 26.3636 99.2536 26.8561 98.799 27.4432C98.3539 28.0208 97.71 28.5369 96.8672 28.9915C96.0339 29.4366 94.907 29.6591 93.4865 29.6591C91.7251 29.6591 90.1437 29.2424 88.7422 28.4091C87.3501 27.5758 86.2469 26.3636 85.4325 24.7727C84.6276 23.1818 84.2251 21.25 84.2251 18.9773C84.2251 16.7424 84.6181 14.7964 85.4041 13.1392C86.1901 11.4725 87.2839 10.1847 88.6854 9.27557C90.0869 8.35701 91.7062 7.89773 93.5433 7.89773C94.9638 7.89773 96.0907 8.13447 96.924 8.60795C97.7668 9.07197 98.4107 9.60227 98.8558 10.1989C99.3104 10.786 99.6607 11.2689 99.907 11.6477H100.248V8.18182H103.487V30.625C103.487 32.5 103.06 34.0246 102.208 35.1989C101.365 36.3826 100.229 37.2491 98.799 37.7983C97.3786 38.357 95.7971 38.6364 94.0547 38.6364ZM93.9411 26.6477C95.2857 26.6477 96.4221 26.34 97.3501 25.7244C98.2782 25.1089 98.9837 24.2235 99.4666 23.0682C99.9496 21.9129 100.191 20.5303 100.191 18.9205C100.191 17.3485 99.9543 15.9612 99.4808 14.7585C99.0073 13.5559 98.3066 12.6136 97.3786 11.9318C96.4505 11.25 95.3047 10.9091 93.9411 10.9091C92.5206 10.9091 91.3369 11.2689 90.3899 11.9886C89.4524 12.7083 88.7469 13.6742 88.2734 14.8864C87.8094 16.0985 87.5774 17.4432 87.5774 18.9205C87.5774 20.4356 87.8142 21.7756 88.2876 22.9403C88.7706 24.0956 89.4808 25.0047 90.4183 25.6676C91.3653 26.321 92.5395 26.6477 93.9411 26.6477ZM118.771 30.4545C116.668 30.4545 114.855 29.9905 113.33 29.0625C111.815 28.125 110.646 26.8182 109.822 25.142C109.007 23.4564 108.6 21.4962 108.6 19.2614C108.6 17.0265 109.007 15.0568 109.822 13.3523C110.646 11.6383 111.791 10.303 113.259 9.34659C114.737 8.38068 116.46 7.89773 118.43 7.89773C119.566 7.89773 120.688 8.08712 121.796 8.46591C122.904 8.8447 123.913 9.46023 124.822 10.3125C125.731 11.1553 126.455 12.2727 126.995 13.6648C127.535 15.0568 127.805 16.7708 127.805 18.8068V20.2273H110.987V17.3295H124.396C124.396 16.0985 124.149 15 123.657 14.0341C123.174 13.0682 122.483 12.3059 121.583 11.7472C120.693 11.1884 119.642 10.9091 118.43 10.9091C117.094 10.9091 115.939 11.2405 114.964 11.9034C113.998 12.5568 113.254 13.4091 112.734 14.4602C112.213 15.5114 111.952 16.6383 111.952 17.8409V19.7727C111.952 21.4205 112.237 22.8172 112.805 23.9631C113.382 25.0994 114.183 25.9659 115.205 26.5625C116.228 27.1496 117.416 27.4432 118.771 27.4432C119.651 27.4432 120.447 27.3201 121.157 27.0739C121.877 26.8182 122.497 26.4394 123.018 25.9375C123.539 25.4261 123.941 24.7917 124.225 24.0341L127.464 24.9432C127.123 26.0417 126.55 27.0076 125.745 27.8409C124.94 28.6648 123.946 29.3087 122.762 29.7727C121.578 30.2273 120.248 30.4545 118.771 30.4545ZM142.393 8.18182V11.0227H131.086V8.18182H142.393ZM134.381 2.95455H137.734V23.75C137.734 24.697 137.871 25.4072 138.146 25.8807C138.43 26.3447 138.79 26.6572 139.225 26.8182C139.67 26.9697 140.139 27.0455 140.631 27.0455C141.001 27.0455 141.304 27.0265 141.54 26.9886C141.777 26.9413 141.967 26.9034 142.109 26.875L142.79 29.8864C142.563 29.9716 142.246 30.0568 141.839 30.142C141.432 30.2367 140.915 30.2841 140.29 30.2841C139.344 30.2841 138.415 30.0805 137.506 29.6733C136.607 29.2661 135.859 28.6458 135.262 27.8125C134.675 26.9792 134.381 25.928 134.381 24.6591V2.95455ZM147.435 30V8.18182H150.788V30H147.435ZM149.14 4.54545C148.487 4.54545 147.923 4.32292 147.45 3.87784C146.986 3.43277 146.754 2.89773 146.754 2.27273C146.754 1.64773 146.986 1.11269 147.45 0.667613C147.923 0.222538 148.487 0 149.14 0C149.793 0 150.352 0.222538 150.816 0.667613C151.29 1.11269 151.526 1.64773 151.526 2.27273C151.526 2.89773 151.29 3.43277 150.816 3.87784C150.352 4.32292 149.793 4.54545 149.14 4.54545ZM165.791 30.4545C163.746 30.4545 161.984 29.9716 160.507 29.0057C159.03 28.0398 157.893 26.7093 157.098 25.0142C156.303 23.3191 155.905 21.3826 155.905 19.2045C155.905 16.9886 156.312 15.0331 157.126 13.3381C157.95 11.6335 159.096 10.303 160.564 9.34659C162.041 8.38068 163.765 7.89773 165.734 7.89773C167.268 7.89773 168.651 8.18182 169.882 8.75C171.113 9.31818 172.122 10.1136 172.908 11.1364C173.694 12.1591 174.181 13.3523 174.371 14.7159H171.018C170.763 13.7216 170.195 12.8409 169.314 12.0739C168.443 11.2973 167.268 10.9091 165.791 10.9091C164.484 10.9091 163.339 11.25 162.354 11.9318C161.378 12.6042 160.616 13.5559 160.067 14.7869C159.527 16.0085 159.257 17.4432 159.257 19.0909C159.257 20.7765 159.522 22.2443 160.053 23.4943C160.592 24.7443 161.35 25.715 162.325 26.4062C163.31 27.0975 164.465 27.4432 165.791 27.4432C166.662 27.4432 167.453 27.2917 168.163 26.9886C168.874 26.6856 169.475 26.25 169.967 25.6818C170.46 25.1136 170.81 24.4318 171.018 23.6364H174.371C174.181 24.9242 173.713 26.0843 172.964 27.1165C172.226 28.1392 171.246 28.9536 170.024 29.5597C168.812 30.1562 167.401 30.4545 165.791 30.4545ZM194.726 13.0682L191.714 13.9205C191.525 13.4186 191.246 12.9309 190.876 12.4574C190.517 11.9744 190.024 11.5767 189.399 11.2642C188.774 10.9517 187.974 10.7955 186.999 10.7955C185.663 10.7955 184.551 11.1032 183.661 11.7188C182.78 12.3248 182.339 13.0966 182.339 14.0341C182.339 14.8674 182.643 15.5256 183.249 16.0085C183.855 16.4915 184.802 16.8939 186.089 17.2159L189.328 18.0114C191.279 18.4848 192.732 19.2093 193.689 20.1847C194.645 21.1506 195.124 22.3958 195.124 23.9205C195.124 25.1705 194.764 26.2879 194.044 27.2727C193.334 28.2576 192.339 29.0341 191.061 29.6023C189.783 30.1705 188.296 30.4545 186.601 30.4545C184.375 30.4545 182.534 29.9716 181.075 29.0057C179.617 28.0398 178.694 26.6288 178.305 24.7727L181.487 23.9773C181.79 25.1515 182.363 26.0322 183.206 26.6193C184.058 27.2064 185.171 27.5 186.544 27.5C188.107 27.5 189.347 27.1686 190.266 26.5057C191.194 25.8333 191.658 25.0284 191.658 24.0909C191.658 23.3333 191.393 22.6989 190.862 22.1875C190.332 21.6667 189.518 21.2784 188.419 21.0227L184.783 20.1705C182.785 19.697 181.317 18.9631 180.379 17.9688C179.451 16.965 178.987 15.7102 178.987 14.2045C178.987 12.9735 179.333 11.8845 180.024 10.9375C180.725 9.99053 181.677 9.24716 182.879 8.70739C184.091 8.16761 185.464 7.89773 186.999 7.89773C189.158 7.89773 190.853 8.37121 192.084 9.31818C193.324 10.2652 194.205 11.5152 194.726 13.0682Z" fill="black"/>
</svg>
